<svg width="1920" height="1068" viewBox="0 0 1920 1068" fill="none" xmlns="http://www.w3.org/2000/svg">
<rect y="279" width="1920" height="510" fill="#F6F4FF"/>
<path d="M803 789C803 715.005 773.605 644.04 721.283 591.717C668.96 539.395 597.995 510 524 510C450.005 510 379.04 539.395 326.717 591.717C274.395 644.04 245 715.005 245 789L524 789H803Z" fill="#E0E0FD"/>
<path d="M1117 279C1117 352.995 1146.39 423.96 1198.72 476.283C1251.04 528.605 1322 558 1396 558C1470 558 1540.96 528.605 1593.28 476.283C1645.61 423.96 1675 352.995 1675 279L1396 279L1117 279Z" fill="#E0E0FD"/>
</svg>
